# xmcd
#
# Track frame offsets: 
#        150
#        16222
#        29122
#        46436
#        60093
#        76927
#        94658
#        113763
#        127222
#        140100
#        156129
#        172531
#        189035
#        205445
#        219920
#        232797
#        245679
#        261672
#        273476
#        291494
#
# Disc length: 4195 seconds
#
# Revision: 0
# Processed by: cddbd v1.5.1PL2 Copyright (c) Steve Scherf et al.
# Submitted via: ExactAudioCopy v0.95b4
#
DISCID=1e106114
DTITLE=Rina Hugo and Ge Korsten - Rina Hugo and Ge Korsten CD 3
DYEAR=1900
DGENRE=Acid
TTITLE0=Seisoene
TTITLE1=Greensleeves
TTITLE2=Somer, Son en See
TTITLE3=Reen
TTITLE4=Kom Droom Nou Saam
TTITLE5=Ek Wens
TTITLE6=A winter's Tail
TTITLE7=Wilde Rose
TTITLE8=Dis 'n Heerlike Lentedag
TTITLE9=Drome
TTITLE10=Amazing Graze
TTITLE11=Herder Van My Hart
TTITLE12=Glo In Die Lewe
TTITLE13=Net Vir Vandag
TTITLE14=Dis Geen Geheim
TTITLE15=I'll Walk with God
TTITLE16=Santa Fe
TTITLE17=U Roep My
TTITLE18=Die Hemelspoort
TTITLE19=Jerusalem
EXTD=
EXTT0=
EXTT1=
EXTT2=
EXTT3=
EXTT4=
EXTT5=
EXTT6=
EXTT7=
EXTT8=
EXTT9=
EXTT10=
EXTT11=
EXTT12=
EXTT13=
EXTT14=
EXTT15=
EXTT16=
EXTT17=
EXTT18=
EXTT19=
PLAYORDER=
